<svg version="1.1" xmlns="http://www.w3.org/2000/svg" width="512" height="512" viewBox="0 0 512 512"><title>clone</title><path d="M475.428 466.286v-310.857c0-4.857-4.286-9.143-9.143-9.143h-310.857c-4.857 0-9.143 4.286-9.143 9.143v310.857c0 4.857 4.286 9.143 9.143 9.143h310.857c4.857 0 9.143-4.286 9.143-9.143zM512 155.429v310.857c0 25.143-20.572 45.715-45.714 45.715h-310.857c-25.143 0-45.715-20.572-45.715-45.714v-310.857c0-25.143 20.572-45.715 45.715-45.715h310.857c25.143 0 45.714 20.572 45.714 45.715zM402.286 45.715v45.715h-36.572v-45.715c0-4.857-4.286-9.143-9.143-9.143h-310.857c-4.857 0-9.143 4.285-9.143 9.143v310.857c0 4.857 4.285 9.143 9.143 9.143h45.715v36.572h-45.715c-25.143 0-45.715-20.572-45.715-45.714v-310.857c0-25.143 20.572-45.715 45.715-45.715h310.857c25.143 0 45.714 20.572 45.714 45.715z"></path></svg>