<svg version="1.1" xmlns="http://www.w3.org/2000/svg" width="475" height="512" viewBox="0 0 475 512"><title>search</title><path d="M329.143 237.714c0-70.572-57.428-128-128-128s-128 57.428-128 128 57.428 128 128 128 128-57.428 128-128zM475.428 475.428c0 20-16.572 36.572-36.572 36.572-9.714 0-19.143-4-25.714-10.857l-98-97.714c-33.428 23.143-73.428 35.428-114 35.428-111.143 0-201.143-90-201.143-201.143s90-201.143 201.143-201.143 201.143 90 201.143 201.143c0 40.571-12.286 80.571-35.428 114l98 98c6.572 6.572 10.572 16 10.572 25.714z"></path></svg>